<svg viewBox="0 0 3000 3000" xmlns="http://www.w3.org/2000/svg"><path d="m384.31 519.52h17.33 511a76.26 76.26 0 0 1 9.2.06c7 .87 11.07-2.18 14.56-8.31 15.92-28 32.35-55.72 48.56-83.56q87.68-150.64 175.33-301.31c13.11-22.54 26.51-44.92 39.19-67.7 3.71-6.66 8-8.79 15.48-8.78q285.45.31 570.9 0c8.38 0 13.06 2.76 17.19 9.89q84.14 145.4 168.73 290.51c30.85 53.05 61.94 106 92.45 159.19 4.47 7.8 9.49 10.22 18.21 10.2q214.08-.37 428.17-.18c31.84 0 63.69.38 95.53-.25 9.63-.19 15 2.69 19.91 11.21q84.3 146 169.39 291.47c38 65.29 75.86 130.68 114.21 195.77 4.57 7.76 4.17 13-.29 20.65q-131.36 225.04-262.36 450.34c-4.25 7.28-4.06 12.58.16 19.81q109.72 187.74 218.92 375.78c14.85 25.52 29.54 51.14 44.65 76.51 3.59 6 3.45 10.76-.08 16.8q-113.13 193.74-225.94 387.67c-19.88 34.14-40 68.15-59.39 102.55-4.39 7.79-9.34 10.29-18.12 10.28q-257.25-.4-514.5-.13c-25.27 0-17.83-4-30.61 17.92q-109 186.83-217.64 373.88c-13.7 23.54-27.67 46.92-40.85 70.74-4.28 7.74-9.21 10.44-18.1 10.41-100.51-.33-201-.2-301.55-.2-89 0-178-.15-267 .22-9.3 0-14.3-3-18.9-10.94q-131.55-227-263.41-453.73c-4.33-7.49-9.48-8.5-16.78-8.49q-198 .19-395.94.15c-42.2 0-84.41-.17-126.61.14-7.71 0-12.27-2-16.37-9.12q-86.08-148.92-172.84-297.45-55.86-95.94-112-191.75c-4.4-7.46-4.94-12.94-.35-20.78q118.17-202.12 235.71-404.62c9.06-15.58 17.67-31.44 27.28-46.67 4.38-6.94 3.65-12.14-.27-18.82q-52.7-89.82-104.86-179.88-79.55-136.76-159.28-273.4c-3.89-6.63-2.4-11 .92-16.63q75.41-129.17 150.54-258.49 66.54-114.34 133.11-228.7c2.3-4.01 4.74-7.88 7.41-12.26zm1116.87 1392.18c75.57 0 151.15-.19 226.72.22 9.76 0 15-3.13 19.78-11.56 27.92-49 56.51-97.55 84.86-146.27q71.16-122.31 142.43-244.55c3.92-6.71 4.26-11.75.14-18.8q-114.61-196.18-228.56-392.74c-3.88-6.69-8.08-9.68-16.17-9.67q-229.61.36-459.21 0c-7.47 0-11.72 2.39-15.5 8.91q-113.67 196.08-227.94 391.76c-4.64 8-4.83 13.79-.09 21.91q113.79 194.67 226.74 389.82c4.94 8.53 10.5 11.19 20.07 11.14 75.55-.34 151.15-.17 226.73-.17zm-819.18-508.78c68.67 0 137.35-.19 206 .23 9.05.06 13.7-3.07 18-10.66 15.58-27.75 31.86-55.11 47.86-82.63q78.69-135.24 157.53-270.39c4.15-7.08 3.55-12.21-.37-18.79-15.7-26.35-31-53-46.42-79.48q-79.52-136.76-158.93-273.59c-4.14-7.14-8.73-10.06-17.15-10q-205.44.38-410.89 0c-9.33 0-14.38 3.19-18.94 11.12-32.08 55.87-64.62 111.48-97 167.16q-53.25 91.49-106.58 182.91c-4.33 7.4-6 13.27-.89 21.91q103 175.66 204.94 352c4.4 7.58 9.09 10.58 18 10.53 68.29-.5 136.58-.32 204.84-.32zm1639.31 943.9c68.67 0 137.35-.12 206 .16 8.16 0 13.15-2.17 17.43-9.56q102.06-176.21 204.8-352c4.58-7.84 5-13.71.26-21.8q-103.09-176.28-205.38-353c-4.12-7.1-8.91-9-16.58-9q-205.44.27-410.89-.08c-9.36 0-14.28 3.26-18.87 11.18q-102.11 176.21-204.94 352c-4.33 7.4-3.67 12.83.43 19.87q102.41 175.35 204.23 351c4.79 8.27 10 11.6 19.78 11.53 67.95-.5 135.86-.28 203.76-.3zm-818.98-2155.82c-68.67 0-137.33.15-206-.18-8.81 0-13.65 2.78-18.11 10.49q-101.45 175.21-203.69 350c-5.07 8.68-5.51 15-.28 23.94q102.32 174.75 203.75 349.98c4.62 8 9.64 11 18.93 11q204.86-.45 409.71 0c9.39 0 14.38-3.2 18.93-11q102.06-176.19 204.75-352c4.22-7.23 4-12.5-.25-19.75q-102.22-174.78-203.65-350c-5.27-9.12-10.9-12.67-21.51-12.6-67.54.4-135.06.12-202.58.12zm-386.06 1779.85c-2.48-4.38-4.69-8.38-7-12.33q-101.27-174.01-202.27-348.15c-5-8.69-10.25-12.13-20.54-12.1-119.68.39-239.37.24-359.05.22-17.27 0-34.55.47-51.78-.2-8.16-.32-12.61 2.78-16.16 9.64-4.75 9.19-10.3 18-15.51 26.91q-94.58 162.59-189.37 325c-4.77 8.15-4.55 14.08 0 21.91q102.72 175.82 204.88 351.95c3.9 6.73 8.23 9.49 16.25 9.47q207.15-.37 414.3 0c7.76 0 11.6-2.8 15.25-9.11q94.65-163.2 189.64-326.2c7.15-12.18 14.15-24.48 21.36-37.01zm1205.22-564.85c68.66 0 137.33-.21 206 .25 9.07 0 13.72-3.09 18-10.58 20.68-36.33 41.83-72.38 62.85-108.5q70.89-121.8 142-243.47c4.2-7.18 4.31-12.47 0-19.78q-102.18-174.78-203.6-350c-5.21-9-10.58-12.75-21.32-12.69-82.86.49-165.71.26-248.57.26-54.09 0-108.18.16-162.26-.13-7.49 0-11.85 2.24-15.45 8.89-8.74 16.19-18.24 32-27.5 47.87q-88.53 152.12-177.27 304.1c-4.88 8.32-5 14.43-.14 22.81q102.52 175.25 204.25 351c4.51 7.8 9.48 10.23 18.2 10.19 68.25-.35 136.53-.22 204.81-.22zm-386 1038.7c-2.22-4-4.18-7.68-6.29-11.3q-102-175.51-203.93-351.12c-4.51-7.79-9.57-10.23-18.28-10.21q-204.84.38-409.67.18c-2.68 0-5.53-.51-8 .22a17.57 17.57 0 0 0 -7.43 4.32c-2.08 2.13-3.2 5.19-4.75 7.84q-101.79 175-203.75 349.91c-4.24 7.26-4.27 12.58 0 19.81q102.72 175.8 204.78 352c4.65 8 9.8 10.82 19 10.8q204.26-.43 408.51.07c10.42 0 15.6-3.62 20.58-12.22q86.1-148.86 172.86-297.34c12.05-20.85 24.09-41.75 36.35-62.93z" fill="#ed1c24"/><g fill="#fff"><path d="m1501.18 1911.7c-75.58 0-151.15-.17-226.73.21-9.57 0-15.13-2.61-20.07-11.14q-113-195.15-226.74-389.82c-4.74-8.12-4.55-14 .09-21.91q114.3-195.7 227.94-391.79c3.78-6.52 8-8.92 15.5-8.91q229.61.29 459.21 0c8.09 0 12.29 3 16.17 9.67q114 196.55 228.56 392.76c4.12 7 3.78 12.09-.14 18.8q-71.43 122.14-142.43 244.55c-28.35 48.72-56.94 97.31-84.86 146.27-4.81 8.43-10 11.61-19.78 11.56-75.57-.44-151.15-.25-226.72-.25z"/><path d="m682 1402.92c-68.29 0-136.58-.18-204.87.22-8.94 0-13.63-3-18-10.53q-102.06-176.22-204.94-352c-5.07-8.64-3.44-14.51.89-21.91q53.44-91.36 106.58-182.91c32.41-55.68 64.95-111.29 97-167.16 4.56-7.93 9.61-11.14 18.94-11.12q205.46.44 410.89 0c8.42 0 13 2.9 17.15 10q79.23 136.93 158.95 273.57c15.43 26.52 30.72 53.13 46.42 79.48 3.92 6.58 4.52 11.71.37 18.79q-79.08 135-157.53 270.39c-16 27.52-32.28 54.88-47.86 82.63-4.27 7.59-8.92 10.72-18 10.66-68.67-.42-137.35-.23-206-.23z"/><path d="m2321.34 2346.83c-67.9 0-135.81-.21-203.71.24-9.79.07-15-3.26-19.78-11.53q-101.76-175.73-204.23-351c-4.1-7-4.76-12.47-.43-19.87q102.81-175.79 204.94-352c4.59-7.92 9.51-11.2 18.87-11.18q205.44.45 410.89.08c7.67 0 12.46 1.91 16.58 9q102.32 176.73 205.38 353c4.73 8.09 4.32 14-.26 21.8q-102.74 175.82-204.8 352c-4.28 7.39-9.27 9.6-17.43 9.56-68.67-.23-137.36-.11-206.02-.1z"/><path d="m1502.33 191c67.52 0 135 .24 202.55-.24 10.61-.07 16.24 3.48 21.51 12.6q101.35 175.29 203.65 350c4.25 7.25 4.47 12.52.25 19.75q-102.68 175.83-204.75 352c-4.55 7.85-9.54 11.07-18.93 11q-204.85-.5-409.71 0c-9.29 0-14.31-3-18.93-11q-101.46-175.22-203.72-350c-5.23-8.92-4.79-15.26.28-23.94q102.27-174.74 203.69-350c4.46-7.71 9.3-10.54 18.11-10.49 68.67.5 137.33.32 206 .32z"/><path d="m1116.27 1970.85c-7.21 12.53-14.21 24.83-21.33 37.07q-94.86 163.08-189.64 326.2c-3.65 6.31-7.49 9.12-15.25 9.11q-207.15-.42-414.3 0c-8 0-12.35-2.74-16.25-9.47q-102.18-176.13-204.88-351.95c-4.57-7.83-4.79-13.76 0-21.91q95.06-162.3 189.37-325c5.21-8.95 10.76-17.72 15.51-26.91 3.55-6.86 8-10 16.16-9.64 17.23.67 34.51.2 51.78.2 119.68 0 239.37.17 359.05-.22 10.29 0 15.51 3.41 20.54 12.1q100.79 174.29 202.27 348.15c2.28 3.89 4.49 7.89 6.97 12.27z"/><path d="m2321.49 1406c-68.28 0-136.56-.16-204.84.19-8.72 0-13.69-2.39-18.2-10.19q-101.71-175.71-204.25-351c-4.91-8.38-4.74-14.49.14-22.81q89-151.85 177.27-304.1c9.26-15.9 18.76-31.68 27.5-47.87 3.6-6.65 8-8.93 15.45-8.89 54.08.29 108.17.13 162.26.13 82.86 0 165.71.23 248.57-.26 10.74-.06 16.11 3.68 21.32 12.69q101.34 175.24 203.6 350c4.27 7.31 4.16 12.6 0 19.78q-71.26 121.57-142 243.47c-21 36.12-42.17 72.17-62.85 108.5-4.26 7.49-8.91 10.63-18 10.58-68.64-.4-137.31-.22-205.97-.22z"/><path d="m1935.47 2444.73c-12.26 21.18-24.3 42.08-36.44 62.93q-86.5 148.64-172.86 297.34c-5 8.6-10.16 12.25-20.58 12.22q-204.25-.61-408.51-.07c-9.18 0-14.33-2.76-19-10.8q-102-176.2-204.78-352c-4.23-7.23-4.2-12.55 0-19.81q102.14-174.8 203.75-349.91c1.55-2.65 2.67-5.71 4.75-7.84a17.57 17.57 0 0 1 7.43-4.32c2.48-.73 5.33-.22 8-.22q204.84 0 409.67-.18c8.71 0 13.77 2.42 18.28 10.21q101.67 175.74 203.93 351.12c2.18 3.65 4.14 7.34 6.36 11.33z"/></g></svg>